<?xml version="1.0" encoding="UTF-8"?>
<svg width="480px" height="481px" viewBox="0 0 480 481" version="1.1" xmlns="http://www.w3.org/2000/svg" xmlns:xlink="http://www.w3.org/1999/xlink">
    <title>best-practices</title>
    <g id="Page-1" stroke="none" stroke-width="1" fill="none" fill-rule="evenodd">
        <g id="05_design_studio" transform="translate(-575.000000, -2008.000000)" fill="#000000" fill-rule="nonzero">
            <g id="best-practices" transform="translate(575.000000, 2008.000000)">
                <polygon id="Path" points="200 72 216 72 216 88 200 88"></polygon>
                <polygon id="Path" points="408 264 424 264 424 280 408 280"></polygon>
                <polygon id="Path" points="264 392 280 392 280 408 264 408"></polygon>
                <polygon id="Path" points="200 416 216 416 216 432 200 432"></polygon>
                <polygon id="Path" points="72 232 88 232 88 248 72 248"></polygon>
                <polygon id="Path" points="264 72 280 72 280 88 264 88"></polygon>
                <polygon id="Path" points="392 200 408 200 408 216 392 216"></polygon>
                <polygon id="Path" points="352 120 368 120 368 136 352 136"></polygon>
                <polygon id="Path" points="112 120 128 120 128 136 112 136"></polygon>
                <polygon id="Path" points="352 344 368 344 368 360 352 360"></polygon>
                <polygon id="Path" points="112 344 128 344 128 360 112 360"></polygon>
                <path d="M239.056,232 C227.511302,232.372633 217.877046,240.931474 216.14692,252.351876 C214.416794,263.772278 221.083697,274.800652 232,278.576 L232,296 L248,296 L248,278.52 C259.202771,274.596485 265.839971,263.057626 263.59888,251.401145 C261.357789,239.744663 250.914987,231.489629 239.056,232 L239.056,232 Z M248,255.688 C248.08441,257.80883 247.322557,259.876274 245.882154,261.435211 C244.441751,262.994147 242.440877,263.916779 240.32,263.999994 C238.196105,264.082955 236.126508,263.31729 234.568,261.872 C232.189843,259.676581 231.368832,256.26451 232.487981,253.227571 C233.60713,250.190631 236.445915,248.12724 239.68,247.999994 L240,247.999994 C244.296268,247.996562 247.828151,251.387169 248,255.68 L248,255.688 Z" id="Shape"></path>
                <path d="M280,209.472 L280,200 C280,177.90861 262.09139,160 240,160 C217.90861,160 200,177.90861 200,200 L200,209.472 C190.445193,212.850036 184.042011,221.865717 184,232 L184,296 C184,309.254834 194.745166,320 208,320 L272,320 C285.254834,320 296,309.254834 296,296 L296,232 C295.957989,221.865717 289.554807,212.850036 280,209.472 Z M216,200 C216,186.745166 226.745166,176 240,176 C253.254834,176 264,186.745166 264,200 L264,208 L216,208 L216,200 Z M280,296 C280,300.418278 276.418278,304 272,304 L208,304 C203.581722,304 200,300.418278 200,296 L200,232 C200,227.581722 203.581722,224 208,224 L272,224 C276.418278,224 280,227.581722 280,232 L280,296 Z" id="Shape"></path>
                <path d="M456,312 C452.436105,312.013798 448.921585,312.834308 445.72,314.4 L427.32,296 L352,296 L352,280 L392,280 L392,264 L352,264 L352,248 L393.888,248 L439.384,225.248 C447.604513,233.121827 460.231136,234.122319 469.589075,227.641349 C478.947014,221.160379 482.450912,208.988473 477.971007,198.524036 C473.491102,188.059598 462.265076,182.193685 451.116404,184.491751 C439.967732,186.789817 431.976505,196.616967 432,208 C432.037611,208.973254 432.136473,209.943173 432.296,210.904 L390.112,232 L352,232 L352,216 L376,216 L376,200 L352,200 L352,184 L387.312,184 L413.712,157.6 C416.916013,159.166868 420.433402,159.98741 424,160 C437.254834,160 448,149.254834 448,136 C448,122.745166 437.254834,112 424,112 C410.745166,112 400,122.745166 400,136 C400.013798,139.563895 400.834308,143.078415 402.4,146.28 L380.688,168 L352,168 C351.973551,145.919575 334.080425,128.026449 312,128 L312,107.312 L357.72,61.6 C360.921585,63.1656916 364.436105,63.9862023 368,64 C381.254834,64 392,53.254834 392,40 C392,26.745166 381.254834,16 368,16 C354.745166,16 344,26.745166 344,40 C344.013798,43.5638945 344.834308,47.0784153 346.4,50.28 L296,100.68 L296,128 L280,128 L280,104 L264,104 L264,128 L248,128 L248,70.528 C259.020373,66.6317096 265.630977,55.3626702 263.654365,43.8421355 C261.677754,32.3216009 251.688871,23.900583 240,23.900583 C228.311129,23.900583 218.322246,32.3216009 216.345635,43.8421355 C214.369023,55.3626702 220.979627,66.6317096 232,70.528 L232,128 L216,128 L216,104 L200,104 L200,128 L184,128 L184,68.688 L149.6,34.288 C151.166868,31.0839866 151.98741,27.5665976 152,24 C152,10.745166 141.254834,-5.68434189e-14 128,-5.68434189e-14 C114.745166,-5.68434189e-14 104,10.745166 104,24 C104,37.254834 114.745166,48 128,48 C131.563895,47.9862023 135.078415,47.1656916 138.28,45.6 L168,75.312 L168,128 C145.919575,128.026449 128.026449,145.919575 128,168 L99.312,168 L77.6,146.28 C79.1656916,143.078415 79.9862023,139.563895 80,136 C80,122.745166 69.254834,112 56,112 C42.745166,112 32,122.745166 32,136 C32,149.254834 42.745166,160 56,160 C59.5638945,159.986202 63.0784153,159.165692 66.28,157.6 L92.68,184 L128,184 L128,200 L77.104,200 L35.2,234.912 C31.7658227,233.027805 27.917018,232.027115 24,232 C10.745166,232 0,242.745166 0,256 C0,269.254834 10.745166,280 24,280 C37.254834,280 48,269.254834 48,256 C48.0053956,252.789264 47.3604297,249.610698 46.104,246.656 L82.896,216 L128,216 L128,232 L104,232 L104,248 L128,248 L128,264 L56,264 L56,280 L128,280 L128,296 L83.72,296 L51.48,344.352 C50.3302316,344.14927 49.1670764,344.031617 48,344 C36.5281482,343.89471 26.555584,351.851074 24.1103269,363.059784 C21.6650697,374.268494 27.4177603,385.65543 37.8911254,390.337641 C48.3644905,395.019851 60.6860858,391.713184 67.4079957,382.416389 C74.1299056,373.119594 73.4085668,360.382427 65.68,351.904 L92.28,312 L128,312 C128.026449,334.080425 145.919575,351.973551 168,352 L168,404.688 L138.28,434.4 C135.078415,432.834308 131.563895,432.013798 128,432 C114.745166,432 104,442.745166 104,456 C104,469.254834 114.745166,480 128,480 C141.254834,480 152,469.254834 152,456 C151.986202,452.436105 151.165692,448.921585 149.6,445.72 L184,411.32 L184,352 L200,352 L200,400 L216,400 L216,352 L232,352 L232,420.432 L280.592,450.832 C277.895471,462.405367 283.945917,474.234913 294.908144,478.82225 C305.870371,483.409587 318.542734,479.414929 324.892607,469.370368 C331.24248,459.325808 329.415309,446.164975 320.569283,438.230122 C311.723256,430.295269 298.441958,429.903861 289.144,437.304 L248,411.568 L248,352 L264,352 L264,376 L280,376 L280,352 L296,352 L296,416 L353.472,416 C357.36829,427.020373 368.63733,433.630977 380.157864,431.654365 C391.678399,429.677754 400.099417,419.688871 400.099417,408 C400.099417,396.311129 391.678399,386.322246 380.157864,384.345635 C368.63733,382.369023 357.36829,388.979627 353.472,400 L312,400 L312,352 C334.080425,351.973551 351.973551,334.080425 352,312 L420.688,312 L434.4,325.72 C432.834308,328.921585 432.013798,332.436105 432,336 C432,349.254834 442.745166,360 456,360 C469.254834,360 480,349.254834 480,336 C480,322.745166 469.254834,312 456,312 L456,312 Z M456,200 C460.418278,200 464,203.581722 464,208 C464,212.418278 460.418278,216 456,216 C451.581722,216 448,212.418278 448,208 C448,203.581722 451.581722,200 456,200 Z M424,128 C428.418278,128 432,131.581722 432,136 C432,140.418278 428.418278,144 424,144 C419.581722,144 416,140.418278 416,136 C416,131.581722 419.581722,128 424,128 Z M368,32 C372.418278,32 376,35.581722 376,40 C376,44.418278 372.418278,48 368,48 C363.581722,48 360,44.418278 360,40 C360,35.581722 363.581722,32 368,32 Z M240,40 C244.418278,40 248,43.581722 248,48 C248,52.418278 244.418278,56 240,56 C235.581722,56 232,52.418278 232,48 C232,43.581722 235.581722,40 240,40 Z M120,24 C120,19.581722 123.581722,16 128,16 C132.418278,16 136,19.581722 136,24 C136,28.418278 132.418278,32 128,32 C123.581722,32 120,28.418278 120,24 Z M48,136 C48,131.581722 51.581722,128 56,128 C60.418278,128 64,131.581722 64,136 C64,140.418278 60.418278,144 56,144 C51.581722,144 48,140.418278 48,136 Z M24,264 C19.581722,264 16,260.418278 16,256 C16,251.581722 19.581722,248 24,248 C28.418278,248 32,251.581722 32,256 C32,260.418278 28.418278,264 24,264 Z M48,376 C43.581722,376 40,372.418278 40,368 C40,363.581722 43.581722,360 48,360 C52.418278,360 56,363.581722 56,368 C56,372.418278 52.418278,376 48,376 Z M128,464 C123.581722,464 120,460.418278 120,456 C120,451.581722 123.581722,448 128,448 C132.418278,448 136,451.581722 136,456 C136,460.418278 132.418278,464 128,464 Z M304,448 C308.418278,448 312,451.581722 312,456 C312,460.418278 308.418278,464 304,464 C299.581722,464 296,460.418278 296,456 C296,451.581722 299.581722,448 304,448 Z M376,400 C380.418278,400 384,403.581722 384,408 C384,412.418278 380.418278,416 376,416 C371.581722,416 368,412.418278 368,408 C368,403.581722 371.581722,400 376,400 Z M336,312 C336,325.254834 325.254834,336 312,336 L168,336 C154.745166,336 144,325.254834 144,312 L144,168 C144,154.745166 154.745166,144 168,144 L312,144 C325.254834,144 336,154.745166 336,168 L336,312 Z M456,344 C451.581722,344 448,340.418278 448,336 C448,331.581722 451.581722,328 456,328 C460.418278,328 464,331.581722 464,336 C464,340.418278 460.418278,344 456,344 Z" id="Shape"></path>
            </g>
        </g>
    </g>
</svg>