<?xml version="1.0" encoding="UTF-8"?>
<svg width="480px" height="481px" viewBox="0 0 480 481" version="1.1" xmlns="http://www.w3.org/2000/svg" xmlns:xlink="http://www.w3.org/1999/xlink">
    <title>brainstorming</title>
    <g id="Page-1" stroke="none" stroke-width="1" fill="none" fill-rule="evenodd">
        <g id="05_design_studio" transform="translate(-1073.000000, -1816.000000)" fill="#000000" fill-rule="nonzero">
            <g id="brainstorming" transform="translate(1073.000000, 1816.000000)">
                <path d="M16,344.012921 L0,344.012921 C0,379.676921 36.336,416.012921 72,416.012921 L72,400.012921 C45.304,400.012921 16,370.708921 16,344.012921 Z" id="Path"></path>
                <path d="M460.376,211.221921 C454.859,203.380921 447.65,196.881921 439.28,192.204921 C457.118,161.797921 446.928,122.686921 416.521,104.848921 C408.86,100.353921 400.344,97.5079208 391.52,96.4929208 C387.68,64.3099208 360.411,40.0639208 328,40.0129208 C327.76,40.0129208 327.528,40.0609208 327.288,40.0609208 C322.935,13.9469208 298.236,-3.69307922 272.122,0.659920778 C258.979,2.85092078 247.341,10.4139208 240,21.5329208 C225.407,-0.556079222 195.671,-6.63307922 173.581,7.95992078 C162.352,15.3789208 154.758,27.1759208 152.656,40.4699208 C123.4,43.8969208 100.251,66.8309208 96.552,96.0539208 C96.368,96.0539208 96.184,96.0139208 96,96.0139208 C60.654,96.0059208 31.993,124.652921 31.985,159.998921 C31.983,166.721921 33.041,173.403921 35.12,179.797921 C18.131,191.761921 8.017,211.235921 8,232.013921 C8.066,255.168921 20.576,276.500921 40.752,287.861921 C22.933,318.279921 33.146,357.384921 63.565,375.203921 C71.203,379.677921 79.687,382.514921 88.48,383.533921 C92.32,415.716921 119.589,439.962921 152,440.013921 C152.24,440.013921 152.472,439.965921 152.712,439.965921 C157.065,466.079921 181.764,483.720921 207.878,479.366921 C221.021,477.175921 232.659,469.612921 240,458.493921 C254.593,480.582921 284.33,486.659921 306.419,472.067921 C317.648,464.648921 325.242,452.851921 327.344,439.557921 C356.587,436.134921 379.732,413.220921 383.448,384.013921 C383.632,384.013921 383.816,384.053921 384,384.053921 C419.346,384.061921 448.007,355.414921 448.015,320.068921 C448.017,313.345921 446.959,306.663921 444.88,300.269921 C473.749,279.958921 480.687,240.090921 460.376,211.221921 Z M408,296.012921 L408,312.012921 C415.655,311.999921 423.244,310.600921 430.4,307.884921 C437.191,333.413921 422.001,359.614921 396.472,366.405921 C392.404,367.487921 388.21,368.028921 384,368.012921 C383.832,368.012921 383.664,368.012921 383.488,368.012921 C381.129,348.769921 370.126,331.652921 353.6,321.516921 L345.192,335.116921 C367.752,349.037921 374.756,378.611921 360.835,401.171921 C353.434,413.166921 341.134,421.301921 327.2,423.420921 C325.291,412.930921 319.943,403.374921 312,396.260921 L301.328,408.180921 C314.503,419.959921 315.635,440.189921 303.856,453.364921 C292.077,466.539921 271.847,467.671921 258.672,455.892921 C251.875,449.816921 247.993,441.129921 248,432.012921 L248,416.012921 L232,416.012921 L232,432.012921 C232,449.685921 217.673,464.012921 200,464.012921 C182.327,464.012921 168,449.685921 168,432.012921 C168,421.940921 172.742,412.455921 180.8,406.412921 L171.2,393.612921 C161.364,400.965921 154.753,411.839921 152.752,423.956921 C152.504,423.956921 152.256,424.012921 152.008,424.012921 C128.367,423.985921 108.265,406.749921 104.632,383.388921 C107.898,382.962921 111.126,382.286921 114.288,381.364921 L109.728,366.020921 C84.318,373.578921 57.593,359.106921 50.036,333.696921 C42.479,308.286921 56.95,281.561921 82.36,274.004921 C86.787,272.687921 91.382,272.016921 96.001,272.012921 C103.116,271.993921 110.144,273.571921 116.569,276.628921 L123.433,262.180921 C98.939,250.563921 69.781,255.654921 50.673,274.884921 C26.951,263.149921 17.234,234.406921 28.968,210.685921 C37.061,194.324921 53.747,183.982921 72.001,184.012921 L72.001,168.012921 C64.346,168.025921 56.757,169.424921 49.601,172.140921 C42.81,146.611921 58,120.410921 83.529,113.619921 C87.597,112.537921 91.791,111.996921 96.001,112.012921 C96.169,112.012921 96.337,112.012921 96.513,112.012921 C98.871,131.255921 109.875,148.372921 126.401,158.508921 L134.809,144.908921 C112.249,130.987921 105.245,101.413921 119.166,78.8539208 C126.567,66.8589208 138.867,58.7239208 152.801,56.6049208 C154.71,67.0949208 160.058,76.6509208 168.001,83.7649208 L178.673,71.8449208 C165.498,60.0659208 164.366,39.8359208 176.145,26.6609208 C187.924,13.4859208 208.154,12.3539208 221.329,24.1329208 C228.126,30.2089208 232.008,38.8959208 232.001,48.0129208 L232.001,64.0129208 L248.001,64.0129208 L248.001,48.0129208 C248.001,30.3399208 262.328,16.0129208 280.001,16.0129208 C297.674,16.0129208 312.001,30.3399208 312.001,48.0129208 C312.001,58.0849208 307.259,67.5699208 299.201,73.6129208 L308.801,86.4129208 C318.637,79.0599208 325.248,68.1859208 327.249,56.0689208 C327.497,56.0689208 327.745,56.0129208 327.993,56.0129208 C351.634,56.0399208 371.736,73.2759208 375.369,96.6369208 C372.103,97.0629208 368.875,97.7389208 365.713,98.6609208 L370.273,114.004921 C395.682,106.446921 422.408,120.918921 429.965,146.328921 C437.522,171.738921 423.051,198.463921 397.641,206.020921 C393.214,207.337921 388.619,208.008921 384,208.012921 C376.885,208.031921 369.857,206.453921 363.432,203.396921 L356.568,217.844921 C381.062,229.461921 410.22,224.370921 429.328,205.140921 C453.05,216.875921 462.767,245.618921 451.033,269.339921 C442.94,285.701921 426.254,296.043921 408,296.012921 Z" id="Shape"></path>
                <path d="M216,132.116921 C187.249,142.317921 168.028,169.505921 168,200.012921 L184,200.012921 C184.034,176.292921 198.977,155.155921 221.328,147.212921 L216,132.116921 Z" id="Path"></path>
                <path d="M232,128.452921 L233.752,144.356921 C237.899,143.899921 242.085,143.899921 246.232,144.356921 L248,128.452921 C242.683,127.866921 237.317,127.866921 232,128.452921 Z" id="Path"></path>
                <path d="M327.636,143.921921 C296.708,95.5219208 232.4,81.3579208 184,112.285921 C135.6,143.213921 121.436,207.521921 152.364,255.921921 C160.489,268.636921 171.284,279.431921 184,287.557921 L184,305.485921 C171.591,309.778921 165.011,323.318921 169.304,335.728921 C170.366,338.798921 172.046,341.618921 174.24,344.013921 C165.346,353.763921 166.04,368.877921 175.79,377.771921 C180.219,381.811921 186.005,384.039921 192,384.014391 L288,384.014391 C301.197,384.071921 311.943,373.420921 312.002,360.223921 C312.029,354.228921 309.801,348.442921 305.76,344.013921 C314.629,334.330921 313.969,319.290921 304.285,310.421921 C301.889,308.227921 299.07,306.547921 296,305.485921 L296,287.557921 C344.4,256.628921 358.564,192.320921 327.636,143.921921 Z M288,368.012921 L192,368.012921 C187.582,368.012921 184,364.430921 184,360.012921 C184,355.594921 187.582,352.012921 192,352.012921 L288,352.012921 C292.418,352.012921 296,355.594921 296,360.012921 C296,364.430921 292.419,368.012921 288,368.012921 Z M288,336.012921 L192,336.012921 C187.582,336.012921 184,332.430921 184,328.012921 C184,323.594921 187.582,320.012921 192,320.012921 L288,320.012921 C292.418,320.012921 296,323.594921 296,328.012921 C296,332.430921 292.419,336.012921 288,336.012921 Z M284,276.148921 C281.527,277.576921 280.003,280.213921 280,283.068921 L280,304.012921 L248,304.012921 L248,259.324921 L277.656,229.668921 L266.344,218.356921 L240,244.700921 L213.656,218.356921 L202.344,229.668921 L232,259.324921 L232,304.012921 L200,304.012921 L200,283.068921 C199.997,280.213921 198.473,277.576921 196,276.148921 C153.925,251.875921 139.493,198.090921 163.765,156.015921 C179.481,128.772921 208.548,111.994921 240,112.012891 C288.575,111.984921 327.975,151.339921 328.003028,199.913921 C328.021,231.365921 311.243,260.432921 284,276.148921 Z" id="Shape"></path>
                <rect id="Rectangle" x="-5.32907052e-15" y="312.012921" width="16" height="16"></rect>
                <path d="M408,64.0129208 L408,80.0129208 C434.696,80.0129208 464,109.316921 464,136.012921 L480,136.012921 C480,100.348921 443.664,64.0129208 408,64.0129208 Z" id="Path"></path>
                <rect id="Rectangle" x="464" y="152.012921" width="16" height="16"></rect>
            </g>
        </g>
    </g>
</svg>