<?xml version="1.0" encoding="UTF-8" standalone="no"?>
<svg width="62px" height="62px" viewBox="0 0 62 62" version="1.1" xmlns="http://www.w3.org/2000/svg" xmlns:xlink="http://www.w3.org/1999/xlink">
    <!-- Generator: Sketch 48.2 (47327) - http://www.bohemiancoding.com/sketch -->
    <title>kd-logo-07</title>
    <desc>Created with Sketch.</desc>
    <defs></defs>
    <g id="Artboard-Copy" stroke="none" stroke-width="1" fill="none" fill-rule="evenodd" transform="translate(-689.000000, -28.000000)">
        <g id="Header" transform="translate(-1.000000, -1.000000)" fill-rule="nonzero">
            <g id="kd-logo-07" transform="translate(721.000000, 60.000000) scale(-1, 1) translate(-721.000000, -60.000000) translate(690.000000, 29.000000)">
                <path d="M30.919367,61.1988914 C41.4590092,61.1859955 51.7054404,55.7378959 57.3566514,45.9855656 C46.8170092,45.9984615 36.570578,51.4465611 30.919367,61.1988914" id="Shape" fill="#C01716"></path>
                <path d="M57.3428532,46.0053394 C52.0620367,36.9128507 42.2054037,30.7902941 30.908156,30.7877149 C36.1889725,39.8806335 46.0456055,46.0027602 57.3428532,46.0053394" id="Shape" fill="#C01716"></path>
                <path d="M57.3566514,15.5791176 C52.0978257,24.6849321 51.7075963,36.2555882 57.3540642,46.0104977 C62.6128899,36.9046833 63.0026881,25.3340271 57.3566514,15.5791176" id="Shape" fill="#C01716"></path>
                <path d="M1.92209174,30.7872851 C1.92209174,14.8281448 14.8996972,1.89052036 30.908156,1.89052036 C40.4370826,1.89052036 48.8901835,6.47502262 54.1735872,13.551448 L55.547367,12.7609276 C52.2603853,8.31613122 47.9260367,4.98812217 43.092367,2.90929864 L43.1277248,2.84825792 C29.7723945,-2.96995475 14.0131651,1.48 5.72909174,13.5535973 C5.67821101,13.6279638 5.62819266,13.7027602 5.57774312,13.7775566 C5.39362385,14.0505204 5.21252294,14.3260633 5.03616514,14.6067647 C4.92491743,14.7834389 4.81711927,14.9626923 4.70888991,15.1419457 C4.62868807,15.2764932 4.54331193,15.4063122 4.46483486,15.5421493 C4.4273211,15.606629 4.39455046,15.6728281 4.35746789,15.7373077 C4.20870642,15.9982353 4.06598165,16.2626018 3.92411927,16.5282579 C3.85124771,16.6658145 3.77578899,16.8029412 3.70507339,16.9413575 C3.54251376,17.2573077 3.38814679,17.5779864 3.23679817,17.9003846 C3.19022936,17.9992534 3.14150459,18.0976923 3.09622936,18.196991 C2.93711927,18.5456109 2.78663303,18.8989593 2.64002752,19.254457 C2.60768807,19.333552 2.57276147,19.4117873 2.54085321,19.4908824 C2.39640367,19.8515385 2.26057798,20.2169231 2.12949541,20.5840271 C2.10189908,20.6614027 2.0717156,20.7379186 2.04498165,20.8152941 C1.92252294,21.1677828 1.80911927,21.5241403 1.69959633,21.8822172 C1.67070642,21.9763575 1.63879817,22.069638 1.61077064,22.1642081 C1.5133211,22.4930543 1.4253578,22.8257692 1.33911927,23.1593439 C1.30677982,23.2835747 1.27099083,23.4069457 1.24037615,23.5311765 C1.16707339,23.8307919 1.1023945,24.1338462 1.03814679,24.4369005 C1.00408257,24.5955204 0.967,24.7537104 0.935522936,24.9123303 C0.881623853,25.1870136 0.836348624,25.4638462 0.790211009,25.7406787 C0.758733945,25.9285294 0.724238532,26.1159502 0.696211009,26.3038009 C0.65740367,26.5651584 0.626788991,26.829095 0.594880734,27.0930317 C0.570302752,27.294638 0.543137615,27.4958145 0.52287156,27.6974208 C0.495706422,27.966086 0.476302752,28.2369005 0.456036697,28.5072851 C0.442238532,28.6990045 0.425853211,28.890724 0.415504587,29.0824434 C0.398688073,29.381629 0.39006422,29.6825339 0.382302752,29.9842986 C0.378422018,30.1377602 0.372816514,30.2912217 0.371091743,30.4446833 C0.369798165,30.5616063 0.362899083,30.6772398 0.362899083,30.7945928 C0.362899083,31.0413348 0.374541284,31.2854977 0.380146789,31.5305204 C0.382302752,31.6053167 0.383165138,31.6801131 0.385752294,31.7549095 C0.859633028,46.981991 12.5376239,59.3900226 27.4797431,61.0600452 L27.4797431,59.4759955 C13.0878257,57.7840498 1.92209174,45.5896606 1.92209174,30.7872851" id="Shape" fill="#333333"></path>
            </g>
        </g>
    </g>
</svg>