<?xml version="1.0" encoding="UTF-8"?>
<svg width="28px" height="24px" viewBox="0 0 28 24" version="1.1" xmlns="http://www.w3.org/2000/svg" xmlns:xlink="http://www.w3.org/1999/xlink">
    <title> copy</title>
    <g id="Page-1" stroke="none" stroke-width="1" fill="none" fill-rule="evenodd">
        <g id="05_design_studio" transform="translate(-1271.000000, -3706.000000)" fill="#FFFFFF">
            <g id="Testimonials" transform="translate(0.000000, 3279.000000)">
                <g id="1" transform="translate(960.000000, 0.000000)">
                    <path d="M324,430.272727 L324,442.272727 C324,443.454551 323.771487,444.582381 323.314453,445.65625 C322.85742,446.730119 322.239587,447.659087 321.460938,448.443182 C320.682288,449.227277 319.759771,449.84943 318.693359,450.309659 C317.626948,450.769889 316.50695,451 315.333333,451 L314.25,451 C313.956596,451 313.702692,450.892047 313.488281,450.676136 C313.27387,450.460226 313.166667,450.204547 313.166667,449.909091 L313.166667,447.727273 C313.166667,447.431817 313.27387,447.176137 313.488281,446.960227 C313.702692,446.744317 313.956596,446.636364 314.25,446.636364 L315.333333,446.636364 C316.52952,446.636364 317.550777,446.210232 318.397135,445.357955 C319.243494,444.505678 319.666667,443.477279 319.666667,442.272727 L319.666667,441.727273 C319.666667,441.272725 319.508682,440.886365 319.192708,440.568182 C318.876735,440.249998 318.493058,440.090909 318.041667,440.090909 L314.25,440.090909 C313.347218,440.090909 312.579864,439.77273 311.947917,439.136364 C311.315969,438.5 311,437.727277 311,436.818182 L311,430.272727 C311,429.363632 311.315969,428.590912 311.947917,427.954545 C312.579864,427.318179 313.347218,427 314.25,427 L320.75,427 C321.652782,427 322.420136,427.318179 323.052083,427.954545 C323.684031,428.590912 324,429.363632 324,430.272727 Z M339,430.272727 L339,442.272727 C339,443.454551 338.771487,444.582381 338.314453,445.65625 C337.85742,446.730119 337.239587,447.659087 336.460938,448.443182 C335.682288,449.227277 334.759771,449.84943 333.693359,450.309659 C332.626948,450.769889 331.50695,451 330.333333,451 L329.25,451 C328.956596,451 328.702692,450.892047 328.488281,450.676136 C328.27387,450.460226 328.166667,450.204547 328.166667,449.909091 L328.166667,447.727273 C328.166667,447.431817 328.27387,447.176137 328.488281,446.960227 C328.702692,446.744317 328.956596,446.636364 329.25,446.636364 L330.333333,446.636364 C331.52952,446.636364 332.550777,446.210232 333.397135,445.357955 C334.243494,444.505678 334.666667,443.477279 334.666667,442.272727 L334.666667,441.727273 C334.666667,441.272725 334.508682,440.886365 334.192708,440.568182 C333.876735,440.249998 333.493058,440.090909 333.041667,440.090909 L329.25,440.090909 C328.347218,440.090909 327.579864,439.77273 326.947917,439.136364 C326.315969,438.5 326,437.727277 326,436.818182 L326,430.272727 C326,429.363632 326.315969,428.590912 326.947917,427.954545 C327.579864,427.318179 328.347218,427 329.25,427 L335.75,427 C336.652782,427 337.420136,427.318179 338.052083,427.954545 C338.684031,428.590912 339,429.363632 339,430.272727 Z" id="-copy"></path>
                </g>
            </g>
        </g>
    </g>
</svg>