<?xml version="1.0" encoding="UTF-8"?>
<svg width="395px" height="446px" viewBox="0 0 395 446" version="1.1" xmlns="http://www.w3.org/2000/svg" xmlns:xlink="http://www.w3.org/1999/xlink">
    <title>react</title>
    <defs>
        <filter id="filter-1">
            <feColorMatrix in="SourceGraphic" type="matrix" values="0 0 0 0 1.000000 0 0 0 0 1.000000 0 0 0 0 1.000000 0 0 0 1.000000 0"></feColorMatrix>
        </filter>
    </defs>
    <g id="Page-1" stroke="none" stroke-width="1" fill="none" fill-rule="evenodd">
        <g id="react" transform="translate(-869.000000, -554.000000)" filter="url(#filter-1)">
            <g transform="translate(869.000000, 554.000000)">
                <path d="M384.78273,102.800781 C368.181168,76.800781 332.481949,66 284.380387,72.199219 C282.681168,72.398438 280.880387,72.699219 279.181168,72.898438 C278.481949,71.300781 277.78273,69.699219 276.981949,68.101562 C256.28273,24.199219 227.981949,0 197.181168,0 C166.380387,0 137.981949,24.199219 117.380387,68.101562 C116.681168,69.699219 115.880387,71.300781 115.181168,72.898438 C113.380387,72.601562 111.681168,72.398438 109.981949,72.199219 C61.78273,65.898438 26.181168,76.800781 9.57960496,102.800781 C-7.01805104,128.800781 -1.92039504,165.699219 23.880387,206.699219 C27.28273,212.101562 30.981949,217.5 34.981949,222.800781 C30.981949,228.199219 27.28273,233.5 23.880387,238.898438 C-1.92039504,279.898438 -7.01805104,316.898438 9.57960496,342.800781 C23.079605,364 49.28273,375.101562 84.579605,375.101562 C93.040543,375.054688 101.489761,374.488281 109.880387,373.398438 C111.579605,373.199219 113.380387,372.898438 115.079605,372.699219 C115.78273,374.300781 116.481949,375.898438 117.28273,377.5 C137.981949,421.398438 166.28273,445.601562 197.079605,445.601562 C227.880387,445.601562 256.28273,421.398438 276.880387,377.5 C277.579605,375.898438 278.380387,374.300781 279.079605,372.699219 C280.880387,373 282.579605,373.199219 284.28273,373.398438 C292.665543,374.535156 301.118668,375.101562 309.579605,375.101562 C344.880387,375.101562 371.079605,364 384.579605,342.800781 C401.181168,316.800781 396.079605,279.898438 370.28273,238.898438 C366.880387,233.5 363.181168,228.101562 359.181168,222.800781 C363.181168,217.398438 366.880387,212.101562 370.28273,206.699219 C396.380387,165.601562 401.481949,128.699219 384.78273,102.800781 L384.78273,102.800781 Z M135.481949,76.601562 C152.380387,40.601562 174.880387,20 197.181168,20 C219.481949,20 241.981949,40.601562 258.880387,76.601562 C258.892105,76.675781 258.927261,76.746094 258.981949,76.800781 C237.739761,81.910156 217.021011,88.972656 197.079605,97.898438 C177.161637,88.929688 156.435074,81.863281 135.181168,76.800781 C135.380387,76.800781 135.380387,76.699219 135.481949,76.601562 L135.481949,76.601562 Z M287.282743,222.800781 C287.286637,238.800781 286.419449,254.792969 284.681168,270.699219 C272.216324,280.757812 259.196793,290.105469 245.681168,298.699219 C230.083511,308.714844 213.849137,317.703125 197.079605,325.601562 C180.34523,317.640625 164.110855,308.65625 148.481949,298.699219 C134.981949,290.082031 121.962418,280.734375 109.481949,270.699219 C106.013199,238.859375 106.013199,206.738281 109.481949,174.898438 C136.435074,153.238281 165.837418,134.8125 197.079605,120 C213.817887,127.957031 230.048355,136.941406 245.681168,146.898438 C259.181168,155.515625 272.200699,164.863281 284.681168,174.898438 C286.419449,190.808594 287.286637,206.796875 287.282743,222.800781 Z M306.380387,193.699219 C316.173355,202.820312 325.392105,212.539062 333.981949,222.800781 C325.392105,233.058594 316.173355,242.777344 306.380387,251.898438 C306.981949,242.300781 307.28273,232.601562 307.28273,222.800781 C307.28273,213 306.981949,203.300781 306.380387,193.699219 Z M280.579605,299.101562 C277.423355,316.414062 272.841324,333.4375 266.880387,350 C251.349137,346.492188 236.106949,341.8125 221.28273,336 C233.079605,329.800781 244.880387,323 256.579605,315.601562 C264.78273,310.300781 272.78273,304.800781 280.579605,299.101562 L280.579605,299.101562 Z M173.079605,336 C158.28273,341.886719 143.03273,346.570312 127.481949,350 C121.521011,333.4375 116.93898,316.414062 113.78273,299.101562 C121.481949,304.800781 129.481949,310.300781 137.78273,315.5 C149.481949,323 161.28273,329.800781 173.079605,336 Z M87.981949,251.898438 C78.18898,242.777344 68.974137,233.058594 60.380387,222.800781 C68.974137,212.539062 78.18898,202.820312 87.981949,193.699219 C87.380387,203.300781 87.079605,213 87.079605,222.800781 C87.079605,232.601562 87.380387,242.300781 87.981949,251.898438 Z M113.78273,146.5 C116.93898,129.183594 121.521011,112.160156 127.481949,95.601562 C143.013199,99.105469 158.259293,103.785156 173.079605,109.601562 C161.28273,115.800781 149.481949,122.601562 137.78273,130 C129.579605,135.300781 121.579605,140.800781 113.78273,146.5 Z M256.481949,130 C244.880387,122.601562 233.079605,115.699219 221.181168,109.601562 C235.978043,103.714844 251.228043,99.03125 266.78273,95.601562 C272.739761,112.160156 277.321793,129.183594 280.481949,146.5 C272.78273,140.800781 264.78273,135.300781 256.481949,130 Z M40.78273,196 C19.579605,162.398438 14.380387,132.300781 26.380387,113.5 C35.981949,98.5 56.78273,90.398438 84.880387,90.398438 C92.403824,90.429688 99.919449,90.933594 107.380387,91.898438 L107.579605,91.898438 C99.489761,115.421875 93.860855,139.71875 90.78273,164.398438 C75.372574,177.253906 61.024918,191.335938 47.880387,206.5 C45.380387,203.101562 42.981949,199.601562 40.78273,196 Z M107.28273,353.601562 C99.821793,354.570312 92.306168,355.070312 84.78273,355.101562 C56.681168,355.101562 35.880387,347.101562 26.28273,332 C14.28273,313.199219 19.481949,283.101562 40.681168,249.5 C42.880387,246 45.28273,242.398438 47.78273,238.898438 C60.923355,254.066406 75.271011,268.144531 90.681168,281 C93.763199,305.683594 99.392105,329.980469 107.481949,353.5 C107.481949,353.601562 107.380387,353.601562 107.28273,353.601562 Z M258.880387,369 C241.981949,405 219.481949,425.601562 197.181168,425.601562 C174.880387,425.601562 152.380387,405 135.481949,369 C135.47023,368.925781 135.435074,368.855469 135.380387,368.800781 C156.622574,363.691406 177.341324,356.628906 197.28273,347.699219 C217.200699,356.671875 237.927261,363.738281 259.181168,368.800781 C258.981949,368.800781 258.981949,368.898438 258.880387,369 Z M353.579605,249.601562 C374.78273,283.199219 379.981949,313.300781 367.981949,332.101562 C355.981949,350.898438 326.481949,358.800781 287.079605,353.601562 L286.880387,353.601562 C294.97023,330.078125 300.603043,305.78125 303.681168,281.101562 C319.091324,268.246094 333.43898,254.164062 346.579605,239 C348.981949,242.5 351.380387,246 353.579605,249.601562 L353.579605,249.601562 Z M303.579605,164.5 C300.50148,139.816406 294.872574,115.519531 286.78273,92 L286.981949,92 C326.380387,86.898438 355.880387,94.699219 367.880387,113.5 C379.880387,132.300781 374.681168,162.398438 353.481949,196 C351.28273,199.5 348.880387,203.101562 346.380387,206.601562 C333.298355,191.410156 318.981949,177.328125 303.579605,164.5 Z" id="Shape" fill="#000000" fill-rule="nonzero"></path>
                <path d="M197.181168,183.199219 C175.310074,183.199219 157.579605,200.929688 157.579605,222.800781 C157.579605,244.671875 175.310074,262.398438 197.181168,262.398438 C219.052261,262.398438 236.78273,244.671875 236.78273,222.800781 C236.767105,200.933594 219.044449,183.214844 197.181168,183.199219 Z M197.181168,242.398438 C186.356949,242.398438 177.579605,233.625 177.579605,222.800781 C177.579605,211.976562 186.356949,203.199219 197.181168,203.199219 C208.005387,203.199219 216.78273,211.976562 216.78273,222.800781 C216.763199,233.617188 207.997574,242.382812 197.181168,242.398438 Z" id="Shape" fill="#000000" fill-rule="nonzero"></path>
            </g>
        </g>
    </g>
</svg>