<?xml version="1.0" encoding="UTF-8"?>
<svg width="512px" height="512px" viewBox="0 0 512 512" version="1.1" xmlns="http://www.w3.org/2000/svg" xmlns:xlink="http://www.w3.org/1999/xlink">
    <title>refactor</title>
    <defs>
        <filter id="filter-1">
            <feColorMatrix in="SourceGraphic" type="matrix" values="0 0 0 0 1.000000 0 0 0 0 1.000000 0 0 0 0 1.000000 0 0 0 1.000000 0"></feColorMatrix>
        </filter>
    </defs>
    <g id="Page-1" stroke="none" stroke-width="1" fill="none" fill-rule="evenodd">
        <g id="refactor" transform="translate(-384.000000, -717.000000)" filter="url(#filter-1)">
            <g transform="translate(384.000000, 717.000000)">
                <path d="M177.804688,289.679688 C210.789062,289.679688 237.625,262.84375 237.625,229.855469 C237.625,196.867188 210.789062,170.03125 177.804688,170.03125 C168.75,170.03125 159.988281,172.03125 151.988281,175.875 C142.324219,162.65625 126.800781,154.550781 110.007812,154.550781 C84.46875,154.550781 63.171875,173.058594 58.824219,197.367188 C55.863281,196.820312 52.847656,196.542969 49.824219,196.542969 C22.351562,196.542969 0,218.894531 0,246.367188 C0,272.996094 20.996094,294.8125 47.304688,296.128906 C58.890625,318.75 82.578125,333.511719 108.3125,333.511719 C123.914062,333.511719 139.179688,328.121094 151.292969,318.335938 C160.734375,310.710938 167.992188,300.664062 172.292969,289.425781 C174.121094,289.59375 175.960938,289.679688 177.804688,289.679688 L177.804688,289.679688 Z M160.113281,269.5625 C157.804688,270.964844 156.167969,273.242188 155.566406,275.875 C150.503906,298.035156 131.070312,313.515625 108.3125,313.515625 C88.386719,313.515625 70.199219,301.015625 63.046875,282.414062 C61.550781,278.523438 57.820312,276 53.71875,276 C53.398438,276 53.074219,276.019531 52.75,276.046875 C51.753906,276.144531 50.769531,276.195312 49.824219,276.195312 C33.378906,276.195312 19.996094,262.8125 19.996094,246.367188 C19.996094,229.917969 33.378906,216.539062 49.824219,216.539062 C54.6875,216.539062 59.328125,217.679688 63.625,219.925781 C66.890625,221.636719 70.835938,221.40625 73.886719,219.332031 C76.933594,217.257812 78.59375,213.671875 78.199219,210.003906 C78.074219,208.828125 78.011719,207.664062 78.011719,206.539062 C78.011719,188.898438 92.363281,174.546875 110.007812,174.546875 C122.675781,174.546875 134.167969,182.042969 139.289062,193.648438 C140.511719,196.417969 142.921875,198.484375 145.847656,199.269531 C148.769531,200.054688 151.894531,199.472656 154.335938,197.6875 C161.1875,192.675781 169.304688,190.03125 177.804688,190.03125 C199.765625,190.03125 217.628906,207.894531 217.628906,229.855469 C217.628906,251.816406 199.765625,269.683594 177.804688,269.683594 C174.417969,269.683594 171.058594,269.257812 167.8125,268.417969 C165.199219,267.746094 162.421875,268.15625 160.113281,269.5625 L160.113281,269.5625 Z" id="Shape" fill="#000000" fill-rule="nonzero"></path>
                <path d="M168.851562,109.554688 C170.878906,109.554688 172.886719,109.429688 174.871094,109.183594 C180.738281,136.402344 205.027344,156.882812 233.941406,156.882812 C253.332031,156.882812 271.503906,147.488281 282.800781,131.988281 C283.324219,132.003906 283.847656,132.015625 284.367188,132.015625 C310.832031,132.015625 332.359375,110.484375 332.359375,84.023438 C332.359375,62.511719 317.835938,43.734375 297.644531,37.90625 C289.574219,15.292969 268.230469,0 243.703125,0 C225.167969,0 208.261719,8.773438 197.628906,23.183594 C189.417969,17.027344 179.332031,13.574219 168.851562,13.574219 C142.386719,13.574219 120.859375,35.101562 120.859375,61.566406 C120.859375,88.027344 142.386719,109.554688 168.851562,109.554688 Z M168.851562,33.570312 C177.890625,33.570312 186.425781,37.984375 191.679688,45.375 C193.796875,48.351562 197.367188,49.9375 200.992188,49.511719 C204.621094,49.085938 207.726562,46.71875 209.097656,43.332031 C214.835938,29.15625 228.417969,19.996094 243.703125,19.996094 C261.09375,19.996094 276.027344,31.804688 280.019531,48.710938 C280.964844,52.71875 284.269531,55.738281 288.347656,56.316406 C302.039062,58.257812 312.363281,70.167969 312.363281,84.023438 C312.363281,99.460938 299.804688,112.019531 284.367188,112.019531 C282.765625,112.019531 281.121094,111.871094 279.476562,111.582031 C275.3125,110.851562 271.15625,112.804688 269.0625,116.46875 C261.867188,129.0625 248.410156,136.886719 233.941406,136.886719 C211.722656,136.886719 193.585938,118.808594 193.515625,96.589844 C193.503906,93.25 191.828125,90.132812 189.042969,88.289062 C187.378906,87.183594 185.453125,86.621094 183.515625,86.621094 C182.207031,86.621094 180.894531,86.878906 179.65625,87.398438 C176.230469,88.832031 172.59375,89.558594 168.847656,89.558594 C153.414062,89.558594 140.851562,77 140.851562,61.5625 C140.851562,46.128906 153.414062,33.570312 168.851562,33.570312 L168.851562,33.570312 Z" id="Shape" fill="#000000" fill-rule="nonzero"></path>
                <path d="M401.402344,176.71875 C404.03125,176.71875 406.609375,175.652344 408.46875,173.789062 C410.328125,171.929688 411.398438,169.351562 411.398438,166.722656 C411.398438,164.09375 410.328125,161.511719 408.46875,159.652344 C406.609375,157.792969 404.03125,156.722656 401.402344,156.722656 C398.773438,156.722656 396.191406,157.792969 394.332031,159.652344 C392.472656,161.511719 391.402344,164.09375 391.402344,166.722656 C391.402344,169.351562 392.472656,171.929688 394.332031,173.789062 C396.191406,175.652344 398.773438,176.71875 401.402344,176.71875 Z" id="Path" fill="#000000" fill-rule="nonzero"></path>
                <path d="M511.292969,100.695312 C510.015625,95.925781 506.953125,91.933594 502.675781,89.464844 L467.535156,69.175781 C463.257812,66.707031 458.269531,66.050781 453.5,67.328125 C448.726562,68.609375 444.738281,71.667969 442.269531,75.945312 L411.878906,128.578125 C409.121094,133.363281 410.757812,139.476562 415.539062,142.238281 C420.324219,145 426.4375,143.359375 429.199219,138.578125 L458.835938,87.246094 L491.378906,106.03125 L385.027344,290.234375 L352.484375,271.445312 L389.195312,207.859375 C391.957031,203.078125 390.320312,196.964844 385.535156,194.203125 C380.753906,191.441406 374.640625,193.082031 371.878906,197.863281 L335.167969,261.445312 L323.742188,254.851562 C321.445312,253.527344 318.714844,253.167969 316.15625,253.851562 C313.59375,254.539062 311.410156,256.214844 310.085938,258.511719 L287.226562,298.101562 C285.746094,298.210938 284.289062,298.625 282.960938,299.390625 L175.203125,361.425781 C171.796875,363.386719 169.855469,367.160156 170.242188,371.070312 C175.144531,420.941406 202.492188,464.011719 245.386719,489.640625 C245.390625,489.640625 245.394531,489.644531 245.402344,489.648438 C245.402344,489.648438 245.40625,489.652344 245.40625,489.652344 C246.101562,490.066406 246.785156,490.488281 247.484375,490.890625 C271.792969,504.929688 298.472656,512 325.289062,512 C347.125,512 369.054688,507.3125 389.871094,497.875 C393.449219,496.253906 395.746094,492.6875 395.742188,488.757812 L395.589844,364.417969 C395.589844,362.886719 395.21875,361.414062 394.570312,360.078125 L417.429688,320.484375 C420.191406,315.703125 418.550781,309.589844 413.769531,306.828125 L402.34375,300.234375 L509.445312,114.734375 C511.914062,110.453125 512.570312,105.46875 511.292969,100.695312 Z M340.6875,491.074219 L347.042969,430.972656 C347.625,425.484375 343.644531,420.558594 338.152344,419.980469 C332.667969,419.394531 327.738281,423.378906 327.15625,428.871094 L320.582031,491.039062 C320.550781,491.320312 320.542969,491.601562 320.535156,491.878906 C301.195312,491.183594 282.03125,486.273438 264.144531,477.183594 L301.183594,413.027344 C303.945312,408.242188 302.308594,402.128906 297.527344,399.367188 C292.742188,396.605469 286.628906,398.246094 283.867188,403.027344 L247,466.882812 C230.753906,455.484375 217.503906,441 207.828125,424.347656 L257.160156,388.457031 C261.625,385.207031 262.609375,378.953125 259.363281,374.488281 C256.113281,370.023438 249.859375,369.039062 245.394531,372.285156 L198.984375,406.054688 C195.171875,396.339844 192.441406,386.097656 190.910156,375.460938 L287.941406,319.597656 L375.601562,370.207031 L375.738281,482.171875 C364.304688,486.746094 352.535156,489.699219 340.6875,491.074219 L340.6875,491.074219 Z M378.125,348.574219 L341.769531,327.582031 L305.417969,306.59375 L322.40625,277.167969 L395.113281,319.144531 L378.125,348.574219 Z" id="Shape" fill="#000000" fill-rule="nonzero"></path>
                <path d="M97.355469,437.925781 C71.226562,437.925781 49.972656,416.671875 49.972656,390.542969 C49.972656,385.023438 45.496094,380.546875 39.972656,380.546875 C34.453125,380.546875 29.976562,385.023438 29.976562,390.542969 C29.976562,427.695312 60.199219,457.921875 97.355469,457.921875 C102.875,457.921875 107.351562,453.445312 107.351562,447.925781 C107.351562,442.402344 102.875,437.925781 97.355469,437.925781 L97.355469,437.925781 Z" id="Path" fill="#000000" fill-rule="nonzero"></path>
                <path d="M462.882812,359.550781 C457.359375,359.550781 452.882812,364.027344 452.882812,369.550781 C452.882812,380.144531 444.265625,388.761719 433.671875,388.761719 C428.148438,388.761719 423.671875,393.238281 423.671875,398.761719 C423.671875,404.28125 428.148438,408.757812 433.671875,408.757812 C455.289062,408.757812 472.878906,391.167969 472.878906,369.550781 C472.878906,364.027344 468.402344,359.550781 462.882812,359.550781 L462.882812,359.550781 Z" id="Path" fill="#000000" fill-rule="nonzero"></path>
                <path d="M113.480469,356.441406 C110.839844,356.441406 108.269531,357.511719 106.410156,359.371094 C104.550781,361.230469 103.480469,363.808594 103.480469,366.4375 C103.480469,369.066406 104.550781,371.648438 106.410156,373.507812 C108.273438,375.367188 110.851562,376.4375 113.480469,376.4375 C116.109375,376.4375 118.6875,375.367188 120.546875,373.507812 C122.40625,371.648438 123.476562,369.066406 123.476562,366.4375 C123.476562,363.808594 122.410156,361.230469 120.546875,359.371094 C118.6875,357.511719 116.109375,356.441406 113.480469,356.441406 Z" id="Path" fill="#000000" fill-rule="nonzero"></path>
                <path d="M137.347656,437.925781 C134.714844,437.925781 132.136719,438.996094 130.277344,440.855469 C128.417969,442.714844 127.347656,445.285156 127.347656,447.925781 C127.347656,450.554688 128.417969,453.132812 130.277344,454.992188 C132.136719,456.851562 134.714844,457.921875 137.347656,457.921875 C139.976562,457.921875 142.554688,456.851562 144.414062,454.992188 C146.273438,453.132812 147.34375,450.554688 147.34375,447.925781 C147.34375,445.296875 146.273438,442.714844 144.414062,440.855469 C142.554688,438.996094 139.976562,437.925781 137.347656,437.925781 Z" id="Path" fill="#000000" fill-rule="nonzero"></path>
                <path d="M39.972656,470.992188 C37.34375,470.992188 34.761719,472.0625 32.90625,473.921875 C31.042969,475.78125 29.972656,478.359375 29.972656,480.988281 C29.972656,483.628906 31.042969,486.199219 32.90625,488.058594 C34.761719,489.917969 37.34375,490.988281 39.972656,490.988281 C42.601562,490.988281 45.179688,489.917969 47.042969,488.058594 C48.902344,486.199219 49.96875,483.617188 49.96875,480.988281 C49.96875,478.359375 48.902344,475.78125 47.042969,473.921875 C45.179688,472.0625 42.601562,470.992188 39.972656,470.992188 Z" id="Path" fill="#000000" fill-rule="nonzero"></path>
                <path d="M437.015625,461.53125 C434.375,461.53125 431.796875,462.59375 429.9375,464.460938 C428.078125,466.320312 427.007812,468.902344 427.007812,471.53125 C427.007812,474.160156 428.074219,476.730469 429.9375,478.601562 C431.804688,480.460938 434.375,481.527344 437.015625,481.527344 C439.644531,481.527344 442.214844,480.460938 444.085938,478.601562 C445.941406,476.738281 447.003906,474.160156 447.003906,471.53125 C447.003906,468.902344 445.941406,466.320312 444.085938,464.460938 C442.226562,462.59375 439.644531,461.53125 437.015625,461.53125 Z" id="Path" fill="#000000" fill-rule="nonzero"></path>
            </g>
        </g>
    </g>
</svg>