<?xml version="1.0" encoding="UTF-8"?>
<svg width="512px" height="512px" viewBox="0 0 512 512" version="1.1" xmlns="http://www.w3.org/2000/svg" xmlns:xlink="http://www.w3.org/1999/xlink">
    <title>wishlist</title>
    <defs>
        <filter id="filter-1">
            <feColorMatrix in="SourceGraphic" type="matrix" values="0 0 0 0 1.000000 0 0 0 0 1.000000 0 0 0 0 1.000000 0 0 0 1.000000 0"></feColorMatrix>
        </filter>
    </defs>
    <g id="Page-1" stroke="none" stroke-width="1" fill="none" fill-rule="evenodd">
        <g id="wishlist" transform="translate(-667.000000, -690.000000)" filter="url(#filter-1)">
            <g transform="translate(667.000703, 690.000000)">
                <path d="M373.333333,256 C371.093333,256 368.853333,255.296 366.954667,253.888 C361.536,249.856 234.666667,154.261333 234.666667,77.44 C234.666667,34.7306667 269.418667,-4.26325641e-14 312.128,-4.26325641e-14 C336.469333,-4.26325641e-14 358.912,11.328 373.333333,29.952 C387.776,11.328 410.218667,-4.26325641e-14 434.538667,-4.26325641e-14 C477.248,-4.26325641e-14 512,34.7306667 512,77.44 C512,154.261333 385.130667,249.856 379.712,253.888 C377.813333,255.296 375.573333,256 373.333333,256 Z M312.128,21.3333333 C281.194667,21.3333333 256,46.5066667 256,77.44 C256,129.216 335.445333,202.197333 373.333333,231.893333 C411.221333,202.197333 490.666667,129.237333 490.666667,77.44 C490.666667,46.5066667 465.472,21.3333333 434.538667,21.3333333 C412.181333,21.3333333 392,34.5386667 383.125333,54.9973333 C381.418667,58.9013333 377.578667,61.4186667 373.333333,61.4186667 C369.088,61.4186667 365.226667,58.9013333 363.541333,54.9973333 C354.688,34.5386667 334.506667,21.3333333 312.128,21.3333333 Z" id="Shape" fill="#000000" fill-rule="nonzero"></path>
                <path d="M416,362.666667 L138.666667,362.666667 C133.589333,362.666667 129.216,359.082667 128.213333,354.090667 L85.5466667,140.757333 C84.9066667,137.621333 85.7386667,134.378667 87.744,131.904 C89.7493333,129.429333 92.8213333,128 96,128 L202.666667,128 C208.554667,128 213.333333,132.778667 213.333333,138.666667 C213.333333,144.554667 208.554667,149.333333 202.666667,149.333333 L109.013333,149.333333 L147.413333,341.333333 L407.253333,341.333333 L424.746667,253.909333 C425.92,248.106667 431.765333,244.330667 437.290667,245.546667 C443.072,246.698667 446.826667,252.309333 445.674667,258.090667 L426.474667,354.090667 C425.450667,359.082667 421.077333,362.666667 416,362.666667 L416,362.666667 Z" id="Path" fill="#000000" fill-rule="nonzero"></path>
                <path d="M138.645333,362.666667 C133.674667,362.666667 129.237333,359.168 128.213333,354.090667 L75.328,89.6853333 C72.3626667,74.7733333 59.136,63.9573333 43.9466667,63.9573333 L43.9253333,63.9573333 L10.688,64 C10.6666667,64 10.6666667,64 10.6666667,64 C4.77866667,64 0,59.2213333 0,53.3333333 C0,47.4453333 4.77866667,42.6666667 10.6453333,42.6666667 L43.8826667,42.624 L43.9466667,42.624 C69.2906667,42.624 91.2853333,60.6506667 96.256,85.504 L149.12,349.909333 C150.293333,355.690667 146.538667,361.301333 140.736,362.453333 C140.053333,362.602667 139.349333,362.666667 138.645333,362.666667 L138.645333,362.666667 Z" id="Path" fill="#000000" fill-rule="nonzero"></path>
                <path d="M458.666667,405.333333 L96,405.333333 C78.3573333,405.333333 64,390.976 64,373.333333 C64,355.690667 78.3573333,341.333333 96,341.333333 L138.666667,341.333333 C144.554667,341.333333 149.333333,346.112 149.333333,352 C149.333333,357.888 144.554667,362.666667 138.666667,362.666667 L96,362.666667 C90.1333333,362.666667 85.3333333,367.445333 85.3333333,373.333333 C85.3333333,379.221333 90.1333333,384 96,384 L458.666667,384 C464.554667,384 469.333333,388.778667 469.333333,394.666667 C469.333333,400.554667 464.554667,405.333333 458.666667,405.333333 Z" id="Path" fill="#000000" fill-rule="nonzero"></path>
                <path d="M170.666667,512 C147.136,512 128,492.864 128,469.333333 C128,445.802667 147.136,426.666667 170.666667,426.666667 C194.197333,426.666667 213.333333,445.802667 213.333333,469.333333 C213.333333,492.864 194.197333,512 170.666667,512 Z M170.666667,448 C158.890667,448 149.333333,457.578667 149.333333,469.333333 C149.333333,481.088 158.890667,490.666667 170.666667,490.666667 C182.442667,490.666667 192,481.088 192,469.333333 C192,457.578667 182.442667,448 170.666667,448 Z" id="Shape" fill="#000000" fill-rule="nonzero"></path>
                <path d="M362.666667,512 C339.136,512 320,492.864 320,469.333333 C320,445.802667 339.136,426.666667 362.666667,426.666667 C386.197333,426.666667 405.333333,445.802667 405.333333,469.333333 C405.333333,492.864 386.197333,512 362.666667,512 Z M362.666667,448 C350.890667,448 341.333333,457.578667 341.333333,469.333333 C341.333333,481.088 350.890667,490.666667 362.666667,490.666667 C374.442667,490.666667 384,481.088 384,469.333333 C384,457.578667 374.442667,448 362.666667,448 Z" id="Shape" fill="#000000" fill-rule="nonzero"></path>
            </g>
        </g>
    </g>
</svg>